<svg width="248" height="239" viewBox="0 0 248 239" fill="none" xmlns="http://www.w3.org/2000/svg">
<path d="M172.945 75.5009C166.489 75.7237 161.844 69.7422 163.68 63.5701C168.801 46.355 179.087 16.013 190.132 7.49498C205.821 -4.60418 228.371 -1.75208 240.5 13.8653C252.628 29.4827 249.742 51.9515 234.053 64.0506C223.008 72.5686 190.953 74.8793 172.945 75.5009Z" fill="white"/>
<path d="M137.641 28.1598C141.197 33.779 140.552 46.1098 139.49 54.9641C138.825 60.5104 133.43 63.9906 128.079 62.3296C119.358 59.6221 107.47 55.0451 103.887 49.3821C98.0139 40.1022 100.809 27.8285 110.13 21.9682C119.451 16.1078 131.768 18.8799 137.641 28.1598Z" fill="white"/>
<path opacity="0.5" d="M128.932 24.2446C135.173 29.2404 135.71 38.9396 130.132 45.9084C124.553 52.8772 114.972 54.4767 108.731 49.4809C102.49 44.4851 101.953 34.7859 107.531 27.8171C113.11 20.8483 122.691 19.2488 128.932 24.2446Z" fill="url(#paint0_radial_927_2721)"/>
<path opacity="0.5" d="M217.269 5.65671C223.51 10.6525 219.698 25.7845 208.755 39.4549C197.812 53.1254 186.986 78.1899 169.07 70.2185C163.912 67.9234 178.152 29.4889 187.983 16.0587C195.181 6.22514 211.028 0.660931 217.269 5.65671Z" fill="url(#paint1_radial_927_2721)"/>
<circle opacity="0.3" cx="128.952" cy="144.999" r="90.5527" fill="white"/>
<circle opacity="0.3" cx="128.952" cy="144.999" r="84.2484" fill="url(#paint2_linear_927_2721)"/>
<path d="M203.758 178.745C203.758 178.745 150.934 228.107 101.95 206.578C68.0795 191.692 52.6894 152.166 67.5756 118.296C82.4619 84.4247 121.987 69.0346 155.858 83.9209C205.52 105.747 203.758 178.745 203.758 178.745Z" fill="url(#paint3_radial_927_2721)"/>
<path d="M124.134 211.891C162.352 209.358 192.568 177.555 192.568 138.695C192.568 130.412 191.195 122.45 188.665 115.024C204.601 143.79 203.757 178.745 203.757 178.745C203.757 178.745 165.637 214.367 124.134 211.891Z" fill="white"/>
<ellipse opacity="0.3" cx="91.1432" cy="81.4915" rx="26.936" ry="12.6155" transform="rotate(-30.0338 91.1432 81.4915)" fill="url(#paint4_linear_927_2721)"/>
<path d="M193.05 124.011C197.161 135.377 198.901 149.431 194.709 165.074C190.612 180.364 180.867 196.698 162.241 204.722C160.821 205.333 159.377 205.912 157.92 206.456C142.258 212.091 124.191 214.618 106.402 208.34C141.053 215.091 175.854 192.774 185.52 156.701C191.154 135.673 187.055 114.422 176.042 98.0803C176.431 98.4111 176.828 98.7643 177.232 99.1395C184.15 106.526 189.266 115.181 193.05 124.011Z" fill="url(#paint5_radial_927_2721)"/>
<path d="M161.715 102.844C162.917 104.01 164.837 103.986 166.01 102.788C167.186 101.586 167.165 99.6587 165.964 98.4825C165.9 98.4232 165.69 98.2273 165.581 98.1316C165.363 97.9403 165.055 97.681 164.66 97.3748C163.871 96.7631 162.727 95.9597 161.251 95.1366C158.298 93.4907 153.985 91.7499 148.51 91.335C140.703 90.7433 134.202 93.5509 129.752 96.3852C127.516 97.8089 125.753 99.2668 124.543 100.375C123.936 100.93 123.464 101.402 123.136 101.743C122.984 101.901 122.723 102.188 122.614 102.308L122.592 102.332C121.492 103.604 121.631 105.526 122.903 106.626C124.173 107.725 126.092 107.588 127.193 106.321C127.248 106.261 127.402 106.092 127.526 105.963C127.773 105.706 128.152 105.326 128.655 104.867C129.662 103.944 131.145 102.717 133.023 101.521C136.799 99.1165 141.99 96.9477 148.05 97.407C152.471 97.7421 155.935 99.145 158.285 100.455C159.46 101.11 160.35 101.738 160.93 102.188C161.22 102.413 161.584 102.73 161.715 102.844Z" fill="url(#paint6_radial_927_2721)"/>
<path d="M163.175 116.914C167.203 126.408 162.771 137.37 153.277 141.397C143.782 145.424 132.821 140.993 128.793 131.498C124.766 122.004 129.198 111.042 138.692 107.015C148.186 102.988 159.148 107.419 163.175 116.914Z" fill="white"/>
<path d="M151.449 122.021C152.79 125.182 151.314 128.832 148.153 130.173C144.992 131.514 141.342 130.039 140.001 126.877C138.66 123.716 140.135 120.066 143.297 118.725C146.458 117.384 150.108 118.86 151.449 122.021Z" fill="black"/>
<path d="M151.449 122.021C152.79 125.182 151.314 128.832 148.153 130.173C144.992 131.514 141.342 130.039 140.001 126.877C138.66 123.716 140.135 120.066 143.297 118.725C146.458 117.384 150.108 118.86 151.449 122.021Z" fill="url(#paint7_radial_927_2721)"/>
<path opacity="0.8" d="M152.099 121.093C151.235 123.571 148.526 124.88 146.047 124.016C143.569 123.153 142.26 120.443 143.124 117.965C143.988 115.487 146.697 114.178 149.175 115.042C151.654 115.905 152.963 118.615 152.099 121.093Z" fill="white"/>
<path d="M66.7866 148.838C70.967 156.106 80.2472 158.608 87.5144 154.427C94.7816 150.247 97.2839 140.967 93.1035 133.7C88.923 126.432 79.6428 123.93 72.3756 128.111C65.1084 132.291 62.6061 141.571 66.7866 148.838Z" fill="white"/>
<path d="M75.167 144.092C76.745 146.835 80.2481 147.78 82.9913 146.202C85.7345 144.624 86.6791 141.121 85.101 138.378C83.523 135.634 80.02 134.69 77.2767 136.268C74.5335 137.846 73.589 141.349 75.167 144.092Z" fill="black"/>
<path d="M75.167 144.092C76.745 146.835 80.2481 147.78 82.9913 146.202C85.7345 144.624 86.6791 141.121 85.101 138.378C83.523 135.634 80.02 134.69 77.2767 136.268C74.5335 137.846 73.589 141.349 75.167 144.092Z" fill="url(#paint8_radial_927_2721)"/>
<path opacity="0.8" d="M85.4837 137.986C84.7401 140.12 82.4077 141.247 80.2741 140.503C78.1405 139.76 77.0137 137.427 77.7573 135.294C78.5009 133.16 80.8333 132.033 82.9669 132.777C85.1005 133.52 86.2273 135.853 85.4837 137.986Z" fill="white"/>
<path d="M59.0223 140.901C60.1646 140.755 60.9733 139.714 60.8331 138.572C60.8244 138.453 60.8014 138.122 60.7985 137.87C60.7926 137.365 60.8171 136.618 60.9451 135.703C61.2013 133.872 61.8681 131.393 63.5168 128.832C65.7762 125.322 69.1158 123.377 71.9979 122.305C73.4311 121.772 74.7181 121.467 75.6408 121.298C76.1008 121.213 76.4663 121.163 76.7094 121.134C76.8309 121.119 76.9874 121.105 77.0434 121.1C78.1935 121.021 79.0639 120.027 78.9883 118.876C78.9127 117.723 77.917 116.85 76.7644 116.926L76.7421 116.928C76.6313 116.938 76.3661 116.962 76.2161 116.98C75.8936 117.018 75.4396 117.082 74.8839 117.184C73.7751 117.388 72.2459 117.749 70.5396 118.384C67.1428 119.647 62.9107 122.046 59.9996 126.568C57.958 129.739 57.1243 132.824 56.8026 135.123C56.6416 136.273 56.6078 137.233 56.6158 137.919C56.6198 138.262 56.6344 138.538 56.6489 138.737C56.6562 138.836 56.6635 138.916 56.6696 138.976C56.6726 139.006 56.6804 139.072 56.6826 139.092C56.829 140.238 57.8765 141.048 59.0223 140.901Z" fill="url(#paint9_radial_927_2721)"/>
<ellipse cx="122.832" cy="172.181" rx="42.8885" ry="13.2397" transform="rotate(-15 122.832 172.181)" fill="url(#paint10_radial_927_2721)"/>
<g filter="url(#filter0_i_927_2721)">
<path d="M3.67783 135.312C1.33826 144.347 7.32682 156.885 18.0031 159.649C22.4308 160.796 29.9822 160.693 29.9822 160.693C29.9822 160.693 40.2122 159.645 42.2397 157.256C44.1267 155.033 48.4079 146.454 48.6743 140.657C48.9407 134.86 38.6912 123.752 28.0149 120.987C17.3386 118.222 8.34351 117.295 3.67783 135.312Z" fill="#FFC633"/>
</g>
<path opacity="0.1" d="M0.407627 149.611C0.624033 158.942 9.80866 169.368 20.8342 169.112C25.4066 169.006 32.643 166.845 32.643 166.845C32.643 166.845 42.1979 163.043 43.4961 160.191C44.7043 157.537 46.4801 148.115 45.1535 142.466C43.8268 136.817 30.9335 128.929 19.908 129.185C8.88246 129.441 -0.0239392 131.005 0.407627 149.611Z" fill="white"/>
<path opacity="0.1" d="M21.0595 107.472C13.8545 113.404 11.3255 127.066 18.3351 135.581C21.2421 139.112 27.4105 143.469 27.4105 143.469C27.4105 143.469 36.3013 148.637 39.3459 147.897C42.1795 147.208 50.6869 142.787 54.3112 138.255C57.9355 133.723 56.1775 118.711 49.1679 110.197C42.1583 101.682 35.4281 95.643 21.0595 107.472Z" fill="white"/>
<path opacity="0.1" d="M0.0150494 158.205C0.231455 167.535 9.41608 177.961 20.4416 177.705C25.014 177.599 32.2504 175.438 32.2504 175.438C32.2504 175.438 41.8053 171.636 43.1035 168.785C44.3117 166.131 46.0875 156.709 44.7609 151.059C43.4342 145.41 30.5409 137.523 19.5154 137.778C8.48988 138.034 -0.416517 139.598 0.0150494 158.205Z" fill="white"/>
<path opacity="0.1" d="M14.0551 112.466C6.85009 118.398 4.32112 132.06 11.3307 140.575C14.2377 144.106 20.4061 148.463 20.4061 148.463C20.4061 148.463 29.2969 153.631 32.3415 152.891C35.1751 152.202 43.6825 147.781 47.3068 143.249C50.9311 138.717 49.1731 123.705 42.1635 115.19C35.1539 106.676 28.4237 100.637 14.0551 112.466Z" fill="white"/>
<path fill-rule="evenodd" clip-rule="evenodd" d="M55.3129 166.612C54.947 165.072 55.8986 163.528 57.4383 163.162L176.763 134.806C178.303 134.44 179.847 135.392 180.213 136.932C180.579 138.471 179.628 140.016 178.088 140.382L58.7634 168.738C57.2236 169.104 55.6788 168.152 55.3129 166.612Z" fill="url(#paint11_linear_927_2721)"/>
<path opacity="0.4" d="M197.745 173.119C205.081 185.809 189.551 206.515 172.672 216.274C155.793 226.032 129.452 229.533 122.116 216.843C114.78 204.153 137.019 202.16 157.903 190.086C178.787 178.012 190.408 160.43 197.745 173.119Z" fill="url(#paint12_linear_927_2721)"/>
<defs>
<filter id="filter0_i_927_2721" x="-0.264395" y="119.455" width="48.9436" height="42.9595" filterUnits="userSpaceOnUse" color-interpolation-filters="sRGB">
<feFlood flood-opacity="0" result="BackgroundImageFix"/>
<feBlend mode="normal" in="SourceGraphic" in2="BackgroundImageFix" result="shape"/>
<feColorMatrix in="SourceAlpha" type="matrix" values="0 0 0 0 0 0 0 0 0 0 0 0 0 0 0 0 0 0 127 0" result="hardAlpha"/>
<feOffset dx="-3.43871" dy="1.71936"/>
<feGaussianBlur stdDeviation="2.57903"/>
<feComposite in2="hardAlpha" operator="arithmetic" k2="-1" k3="1"/>
<feColorMatrix type="matrix" values="0 0 0 0 1 0 0 0 0 0.6 0 0 0 0 0.00392157 0 0 0 1 0"/>
<feBlend mode="normal" in2="shape" result="effect1_innerShadow_927_2721"/>
</filter>
<radialGradient id="paint0_radial_927_2721" cx="0" cy="0" r="1" gradientUnits="userSpaceOnUse" gradientTransform="translate(106.811 24.3989) rotate(42.6861) scale(31.7258 35.8374)">
<stop stop-color="white"/>
<stop offset="0.823357" stop-color="white" stop-opacity="0"/>
</radialGradient>
<radialGradient id="paint1_radial_927_2721" cx="0" cy="0" r="1" gradientUnits="userSpaceOnUse" gradientTransform="translate(186.767 16.2799) rotate(46.5053) scale(31.9459 69.8168)">
<stop stop-color="white"/>
<stop offset="0.823357" stop-color="white" stop-opacity="0"/>
</radialGradient>
<linearGradient id="paint2_linear_927_2721" x1="101.155" y1="67.0549" x2="128.952" y2="229.247" gradientUnits="userSpaceOnUse">
<stop stop-color="white" stop-opacity="0"/>
<stop offset="0.386156" stop-color="white"/>
</linearGradient>
<radialGradient id="paint3_radial_927_2721" cx="0" cy="0" r="1" gradientUnits="userSpaceOnUse" gradientTransform="translate(118.261 155.429) rotate(-79.5085) scale(78.6826 72.9696)">
<stop stop-color="#FFC633"/>
<stop offset="0.69703" stop-color="#FFC633"/>
<stop offset="1" stop-color="#FF9900"/>
</radialGradient>
<linearGradient id="paint4_linear_927_2721" x1="84.1367" y1="43.3754" x2="77.5708" y2="92.2849" gradientUnits="userSpaceOnUse">
<stop offset="0.450126" stop-color="white"/>
<stop offset="1" stop-color="white" stop-opacity="0"/>
</linearGradient>
<radialGradient id="paint5_radial_927_2721" cx="0" cy="0" r="1" gradientUnits="userSpaceOnUse" gradientTransform="translate(177.102 175.856) rotate(-174.563) scale(21.6846 37.0101)">
<stop stop-color="#656565"/>
<stop offset="1"/>
</radialGradient>
<radialGradient id="paint6_radial_927_2721" cx="0" cy="0" r="1" gradientUnits="userSpaceOnUse" gradientTransform="translate(145.495 110.567) rotate(88.698) scale(25.2237 34.3306)">
<stop offset="0.5"/>
<stop offset="0.65625" stop-color="#373737"/>
<stop offset="0.770833"/>
</radialGradient>
<radialGradient id="paint7_radial_927_2721" cx="0" cy="0" r="1" gradientUnits="userSpaceOnUse" gradientTransform="translate(147.409 123.245) rotate(83.8711) scale(6.96823)">
<stop stop-color="white" stop-opacity="0.28"/>
<stop offset="1" stop-color="white" stop-opacity="0"/>
</radialGradient>
<radialGradient id="paint8_radial_927_2721" cx="0" cy="0" r="1" gradientUnits="userSpaceOnUse" gradientTransform="translate(81.9966 140.819) rotate(106.857) scale(6.42283)">
<stop stop-color="white" stop-opacity="0.28"/>
<stop offset="1" stop-color="white" stop-opacity="0"/>
</radialGradient>
<radialGradient id="paint9_radial_927_2721" cx="0" cy="0" r="1" gradientUnits="userSpaceOnUse" gradientTransform="translate(71.3459 133.536) rotate(35.8133) scale(17.285 23.5256)">
<stop offset="0.5"/>
<stop offset="0.65625" stop-color="#373737"/>
<stop offset="0.770833"/>
</radialGradient>
<radialGradient id="paint10_radial_927_2721" cx="0" cy="0" r="1" gradientUnits="userSpaceOnUse" gradientTransform="translate(116.86 161.018) rotate(90.3642) scale(24.4031 78.343)">
<stop offset="0.378795" stop-color="#FFB826"/>
<stop offset="0.786866" stop-color="#FFB826" stop-opacity="0"/>
</radialGradient>
<linearGradient id="paint11_linear_927_2721" x1="97.9871" y1="145.828" x2="104.932" y2="174.923" gradientUnits="userSpaceOnUse">
<stop offset="0.213006"/>
<stop offset="0.346205" stop-color="#373737"/>
<stop offset="0.391467"/>
</linearGradient>
<linearGradient id="paint12_linear_927_2721" x1="152.111" y1="187.779" x2="166.213" y2="220.935" gradientUnits="userSpaceOnUse">
<stop stop-color="white" stop-opacity="0"/>
<stop offset="1" stop-color="white"/>
</linearGradient>
</defs>
</svg>
