<svg width="338" height="318" viewBox="0 0 338 318" fill="none" xmlns="http://www.w3.org/2000/svg">
<circle opacity="0.1" cx="179" cy="159" r="159" fill="white"/>
<path d="M165.64 80.8889H158.437C156.573 80.8889 155.062 82.3997 155.062 84.2635V117.51C155.062 119.374 156.573 120.884 158.437 120.884H165.64C167.504 120.884 169.015 119.374 169.015 117.51V84.2635C169.015 82.3997 167.504 80.8889 165.64 80.8889Z" fill="#64CC21"/>
<path d="M147.187 100.887H144.332C142.468 100.887 140.958 102.398 140.958 104.261V117.51C140.958 119.374 142.468 120.884 144.332 120.884H147.187C149.05 120.884 150.561 119.374 150.561 117.51V104.261C150.561 102.398 149.05 100.887 147.187 100.887Z" fill="#64CC21"/>
<path d="M111.987 132.61H81.2425C78.2727 132.61 75.8652 135.017 75.8652 137.987V137.991C75.8652 140.961 78.2727 143.368 81.2425 143.368H111.987C114.956 143.368 117.364 140.961 117.364 137.991V137.987C117.364 135.017 114.956 132.61 111.987 132.61Z" fill="white"/>
<path d="M184.848 202.53H172.144C169.174 202.53 166.767 204.938 166.767 207.908V207.912C166.767 210.881 169.174 213.289 172.144 213.289H184.848C187.818 213.289 190.225 210.881 190.225 207.912V207.908C190.225 204.938 187.818 202.53 184.848 202.53Z" fill="white"/>
<path d="M178.5 284C247.259 284 303 228.259 303 159.5C303 90.7405 247.259 35 178.5 35C109.741 35 54 90.7405 54 159.5C54 228.259 109.741 284 178.5 284Z" fill="#0EE2E2"/>
<path d="M271.228 76.3634C292.426 100.989 303.172 130.312 303.11 162.776C290.729 163.014 278.351 163.21 265.977 163.366C264.91 163.405 263.897 163.85 263.148 164.612C262.398 165.374 261.969 166.393 261.948 167.461C261.894 169.403 261.862 170.369 261.776 172.29C261.711 173.378 261.252 174.405 260.485 175.178C259.717 175.952 258.694 176.419 257.606 176.492C254.908 176.627 253.548 176.692 250.804 176.815C249.689 176.898 248.641 177.381 247.854 178.175C247.067 178.969 246.593 180.02 246.52 181.136C245.273 201.958 242.308 222.642 237.658 242.976C237.187 244.938 235.242 246.92 233.309 247.403C221.591 250.179 209.693 252.131 197.703 253.244C197.221 253.295 196.734 253.238 196.276 253.078C195.818 252.918 195.402 252.658 195.057 252.318C194.712 251.978 194.446 251.565 194.28 251.109C194.114 250.654 194.051 250.167 194.095 249.685C194.862 235.416 195.447 221.142 195.848 206.863C195.862 206.302 195.762 205.744 195.551 205.223C195.341 204.703 195.026 204.231 194.626 203.838C194.226 203.444 193.749 203.137 193.225 202.935C192.701 202.733 192.141 202.642 191.581 202.665C183.234 202.791 174.889 202.798 166.545 202.686C165.374 202.661 164.257 202.189 163.423 201.367C162.589 200.544 162.102 199.434 162.061 198.263C161.788 184.243 161.658 170.223 161.672 156.203C161.67 155.002 162.142 153.849 162.985 152.995C163.829 152.14 164.976 151.654 166.177 151.641C185.668 151.597 205.157 151.679 224.643 151.887C225.206 151.895 225.765 151.79 226.286 151.576C226.807 151.363 227.28 151.046 227.675 150.645C228.07 150.244 228.38 149.766 228.586 149.242C228.792 148.718 228.89 148.158 228.873 147.595C228.873 147.382 228.873 147.275 228.873 147.062C228.847 146.51 228.935 145.957 229.132 145.44C229.33 144.924 229.631 144.453 230.019 144.058C230.407 143.663 230.872 143.353 231.385 143.146C231.898 142.939 232.448 142.84 233.001 142.856C239.886 143.082 246.77 143.327 253.65 143.63C254.162 143.666 254.674 143.59 255.154 143.409C255.633 143.227 256.067 142.944 256.426 142.578C256.786 142.213 257.061 141.774 257.235 141.292C257.408 140.809 257.475 140.295 257.43 139.785C257.262 137.168 257.168 135.861 256.943 133.273C256.814 132.174 256.317 131.15 255.534 130.368C254.75 129.586 253.726 129.092 252.626 128.965C246.86 128.481 241.09 128.045 235.315 127.654C234.787 127.611 234.255 127.683 233.758 127.867C233.261 128.051 232.81 128.341 232.437 128.718C232.064 129.095 231.778 129.548 231.598 130.047C231.419 130.546 231.352 131.078 231.4 131.606C231.457 132.675 231.482 133.212 231.535 134.285C231.57 134.828 231.49 135.372 231.299 135.882C231.108 136.391 230.812 136.855 230.429 137.242C230.047 137.628 229.587 137.93 229.079 138.126C228.572 138.322 228.028 138.409 227.485 138.38C216.709 138.022 205.934 137.773 195.16 137.631C194.575 137.622 193.993 137.73 193.451 137.95C192.908 138.169 192.415 138.495 192 138.908C191.585 139.321 191.257 139.812 191.035 140.354C190.813 140.896 190.702 141.476 190.708 142.062C190.712 142.653 190.597 143.24 190.372 143.787C190.146 144.333 189.814 144.83 189.395 145.247C188.976 145.665 188.477 145.994 187.93 146.217C187.382 146.44 186.795 146.552 186.203 146.546C180.931 146.53 175.66 146.53 170.391 146.546C169.799 146.552 169.213 146.44 168.665 146.217C168.117 145.994 167.619 145.665 167.199 145.247C166.78 144.83 166.448 144.333 166.223 143.787C165.997 143.24 165.883 142.653 165.886 142.062C165.911 138.47 165.927 136.68 165.964 133.134C165.985 131.949 166.468 130.819 167.309 129.983C168.15 129.148 169.284 128.674 170.469 128.662C172.709 128.662 173.831 128.641 176.084 128.633C177.265 128.644 178.402 128.186 179.246 127.36C180.091 126.534 180.573 125.407 180.589 124.226C180.589 122.007 180.589 120.905 180.589 118.702C180.591 118.128 180.708 117.561 180.932 117.033C181.156 116.505 181.482 116.027 181.893 115.626C182.303 115.226 182.789 114.911 183.323 114.7C183.856 114.489 184.426 114.386 184.999 114.397C193.28 114.508 201.557 114.717 209.83 115.118C210.365 115.162 210.904 115.09 211.408 114.906C211.913 114.721 212.372 114.43 212.753 114.051C213.133 113.672 213.427 113.215 213.614 112.711C213.801 112.207 213.876 111.669 213.835 111.133C213.043 98.6915 211.98 86.277 210.645 73.8898C210.407 71.7725 211.873 70.3022 213.95 70.6135C223.833 72.1688 233.622 74.2716 243.273 76.9122C245.169 77.4528 246.238 76.3839 245.66 74.5246C243.932 69.1473 242.122 63.8151 240.054 58.5526C239.374 56.8202 240.131 56.0544 241.749 56.8448C252.283 62.2127 262.173 68.761 271.228 76.3634V76.3634Z" fill="#64CC21"/>
<path d="M192.793 65.0807C190.094 64.9128 188.734 64.8473 186.002 64.7613C185.589 64.7438 185.175 64.8115 184.789 64.9601C184.402 65.1088 184.05 65.3353 183.754 65.6255C183.459 65.9158 183.226 66.2636 183.07 66.6475C182.914 67.0314 182.839 67.4432 182.849 67.8574C183.013 78.8085 183.149 89.7596 183.259 100.711C183.287 101.651 183.679 102.544 184.352 103.201C185.025 103.859 185.926 104.23 186.867 104.237C189.909 104.286 191.425 104.323 194.439 104.417C194.887 104.444 195.335 104.377 195.755 104.22C196.176 104.063 196.558 103.82 196.878 103.506C197.198 103.191 197.449 102.813 197.613 102.396C197.778 101.979 197.853 101.532 197.834 101.083C197.389 90.1978 196.829 79.3204 196.155 68.4513C196.083 67.5826 195.707 66.7674 195.091 66.1503C194.475 65.5333 193.661 65.1543 192.793 65.0807V65.0807Z" fill="#64CC21"/>
<path d="M175.068 83.936C173.905 83.936 173.327 83.936 172.173 83.9769C171.259 83.9942 170.387 84.3608 169.736 85.0015C169.084 85.6422 168.703 86.5081 168.671 87.4211C168.565 91.8851 168.464 96.3491 168.368 100.813C168.362 101.27 168.449 101.724 168.624 102.146C168.799 102.569 169.057 102.951 169.385 103.271C169.712 103.59 170.1 103.84 170.527 104.004C170.953 104.169 171.409 104.245 171.865 104.229C173.094 104.229 173.684 104.208 174.896 104.2C175.838 104.209 176.746 103.845 177.421 103.187C178.096 102.53 178.484 101.632 178.5 100.69V87.2696C178.496 86.8246 178.404 86.3847 178.229 85.9755C178.054 85.5663 177.8 85.1959 177.48 84.8858C177.161 84.5757 176.784 84.332 176.369 84.169C175.955 84.0059 175.513 83.9267 175.068 83.936Z" fill="#64CC21"/>
<path d="M153.264 37.5596C150.843 52.471 148.996 67.456 147.53 82.4697C147.387 83.5706 146.885 84.5936 146.102 85.38C145.319 86.1664 144.297 86.6722 143.197 86.819C130.928 88.1959 118.738 90.2012 106.674 92.827C104.68 93.2816 103.472 92.0775 103.98 90.1363C105.09 85.8853 105.687 83.7966 106.957 79.7012C107.534 77.8337 106.547 76.8345 104.737 77.4774L103.296 78.0017C101.502 78.6569 100.617 77.7723 101.322 76.0277C104.296 68.5761 107.779 61.3375 111.745 54.363C124.572 46.5288 138.598 40.8523 153.264 37.5596V37.5596Z" fill="#64CC21"/>
<path d="M107.621 193.602C110.487 220.739 116.069 247.215 125.923 272.697C114.851 267.279 104.527 260.451 95.2075 252.384C88.2447 244.078 82.1529 235.08 77.0281 225.53C75.9775 223.717 74.4299 222.242 72.5682 221.279C71.229 220.665 70.5655 220.354 69.255 219.719C47.447 177.983 49.5152 130.034 74.8862 90.3575C78.9816 87.873 83.1862 85.57 87.5 83.4486C89.1382 82.6295 89.8467 83.3421 89.0767 85.0212C86.7219 90.165 84.7192 95.4235 82.8231 100.748C82.2088 102.545 83.2326 103.577 85.137 103.057C88.2781 102.181 89.8753 101.763 93.1189 100.961C95.0642 100.477 96.2764 101.689 95.8218 103.663C91.7924 122.317 89.7063 141.338 89.5968 160.422C89.6111 160.934 89.5222 161.444 89.3353 161.922C89.1485 162.399 88.8675 162.835 88.5092 163.201C88.1508 163.568 87.7223 163.859 87.2493 164.057C86.7762 164.255 86.2681 164.356 85.7554 164.353C80.5679 164.263 75.3804 164.163 70.1929 164.054C69.7256 164.035 69.2594 164.113 68.8241 164.284C68.3888 164.455 67.994 164.715 67.6648 165.047C67.3356 165.379 67.0794 165.777 66.9125 166.214C66.7456 166.65 66.6716 167.117 66.6954 167.584C66.9302 172.403 67.3739 177.206 68.0264 181.992C68.2926 183.917 70.1232 185.678 72.1218 185.94C82.4968 187.248 92.8868 188.355 103.292 189.261C104.393 189.401 105.417 189.903 106.201 190.689C106.985 191.475 107.485 192.5 107.621 193.602Z" fill="#64CC21"/>
<path d="M137.01 128.83C126.635 129.307 116.27 129.937 105.917 130.718C103.018 130.947 100.909 128.817 101.22 125.971C101.531 123.129 104.087 120.577 106.953 120.262C117.151 119.17 127.361 118.304 137.583 117.666C138.292 117.609 139.004 117.708 139.671 117.954C140.338 118.199 140.943 118.587 141.446 119.09C141.949 119.592 142.336 120.198 142.582 120.865C142.828 121.532 142.926 122.244 142.87 122.953C142.776 124.478 142.129 125.917 141.05 126.999C139.971 128.081 138.535 128.732 137.01 128.83V128.83Z" fill="white"/>
<path d="M214.896 203.493C210.473 203.722 206.05 203.923 201.627 204.095C200.893 204.128 200.16 204.009 199.474 203.745C198.788 203.481 198.165 203.078 197.642 202.562C197.12 202.045 196.71 201.426 196.439 200.743C196.167 200.06 196.04 199.329 196.065 198.595V198.595C196.125 197.053 196.767 195.591 197.862 194.504C198.957 193.417 200.424 192.786 201.967 192.738C206.455 192.613 210.944 192.464 215.432 192.292C216.144 192.243 216.858 192.347 217.526 192.597C218.195 192.847 218.801 193.238 219.306 193.742C219.81 194.247 220.201 194.854 220.451 195.522C220.701 196.19 220.805 196.904 220.756 197.616C220.645 199.135 219.992 200.563 218.917 201.642C217.841 202.72 216.414 203.377 214.896 203.493Z" fill="white"/>
<path d="M65.684 130.648C65.3976 131.927 64.7308 133.089 63.7714 133.982C62.8386 134.905 61.6452 135.521 60.3518 135.747C58.599 136.001 57.7348 136.132 56.0229 136.394C56.6618 133.015 57.0345 131.344 57.8986 128.047C59.5818 127.687 60.4296 127.511 62.1497 127.163C64.5823 126.651 66.1591 128.215 65.684 130.648Z" fill="white"/>
<path d="M302.132 175.628C301.693 179.072 301.411 180.776 300.739 184.142C290.64 185.735 280.52 187.078 270.36 188.237C267.616 188.54 265.613 186.521 265.875 183.732C266.026 182.326 266.662 181.015 267.673 180.026C268.654 179.024 269.962 178.406 271.359 178.286C281.63 177.529 291.888 176.643 302.132 175.628Z" fill="white"/>
<path d="M298.786 192.46C297.893 195.736 297.389 197.374 296.283 200.548C286.164 203.386 275.999 205.778 265.691 207.826C263.041 208.333 261.272 206.56 261.731 203.857C262.008 202.45 262.713 201.163 263.75 200.171C264.754 199.153 266.051 198.472 267.46 198.226C277.969 196.604 288.392 194.72 298.786 192.46Z" fill="white"/>
<path d="M300.739 184.142C300.072 187.512 299.679 189.175 298.786 192.46C283.531 195.765 268.185 198.263 252.7 200.2C249.875 200.54 247.819 198.472 248.109 195.576C248.28 194.112 248.948 192.75 250.002 191.718C251.025 190.672 252.38 190.015 253.835 189.859C269.537 188.434 285.165 186.591 300.739 184.142Z" fill="white"/>
<path d="M281.442 89.3459C283.313 92.0816 284.206 93.4822 285.898 96.3449C266.182 86.3931 245.583 79.9142 223.914 75.7942C221.665 75.3847 219.519 73.5376 218.647 71.3548C218.476 70.9388 218.354 70.5046 218.283 70.0606C218.074 68.7133 218.418 67.6034 219.126 66.8908C219.835 66.1782 220.912 65.8833 222.198 66.1536C243.256 70.8592 262.914 78.2269 281.442 89.3459Z" fill="white"/>
<path d="M271.228 76.3635C273.435 78.8207 274.504 80.0862 276.552 82.6868C267.271 76.1015 257.37 70.4393 246.987 65.781C244.759 64.8186 242.22 62.1975 241.319 59.9287C240.873 58.7942 240.91 57.9711 241.299 57.5738C241.688 57.1766 242.449 57.197 243.502 57.7294C253.385 62.9286 262.681 69.1759 271.228 76.3635V76.3635Z" fill="white"/>
<path d="M276.544 82.6744C278.591 85.275 279.57 86.6101 281.458 89.3458C266.743 80.5202 251.349 74.0495 234.894 69.2292C232.412 68.5412 229.885 65.9529 229.262 63.4424C228.951 62.1851 229.16 61.1941 229.733 60.6207C230.307 60.0473 231.24 59.8835 232.42 60.2685C248.298 65.7154 262.836 72.9478 276.544 82.6744Z" fill="white"/>
<ellipse cx="95.946" cy="129.134" rx="64.3794" ry="100.388" transform="rotate(20.7298 95.946 129.134)" fill="url(#paint0_linear_927_2782)"/>
<ellipse opacity="0.6" cx="261.985" cy="195.909" rx="27.8374" ry="49.7275" transform="rotate(20.7298 261.985 195.909)" fill="url(#paint1_linear_927_2782)"/>
<defs>
<linearGradient id="paint0_linear_927_2782" x1="215.428" y1="130.87" x2="26.0191" y2="122.385" gradientUnits="userSpaceOnUse">
<stop stop-color="white" stop-opacity="0.28"/>
<stop offset="1" stop-color="white" stop-opacity="0"/>
</linearGradient>
<linearGradient id="paint1_linear_927_2782" x1="313.649" y1="196.769" x2="231.71" y2="193.564" gradientUnits="userSpaceOnUse">
<stop stop-color="white"/>
<stop offset="0.96013" stop-color="white" stop-opacity="0"/>
</linearGradient>
</defs>
</svg>
