<svg width="684" height="639" viewBox="0 0 684 639" fill="none" xmlns="http://www.w3.org/2000/svg">
<path d="M413.104 506.898C413.915 505.841 413.441 504.322 412.167 503.932C400.504 500.353 380.263 497.437 364.121 501.611C332.625 509.757 308.234 536.366 341.857 542.882C366.911 547.738 397.289 527.496 413.104 506.898Z" fill="url(#paint0_linear_928_1405)"/>
<path d="M614 216C614 198.428 600.266 184.064 582.947 183.057C581.866 182.994 580.977 182.137 580.948 181.053L579.985 144.991C579.985 123.098 562.236 105.349 540.343 105.349H515.968C489.542 105.349 468.119 83.9265 468.119 57.5C468.119 25.7436 441.17 0 409.414 0H265.494C236.702 0 213.362 23.3402 213.362 52.1316V77.2835C213.362 78.3881 212.467 79.2835 211.362 79.2835H172.634C150.741 79.2835 132.992 97.0318 132.992 118.925V142.448C132.992 143.553 132.097 144.448 130.992 144.448H109.642C87.7484 144.448 70 162.196 70 184.09V216C70 234.225 84.7746 249 103 249H54C35.7746 249 21 263.775 21 282C21 300.225 35.7746 315 54 315H33C14.7746 315 0 329.775 0 348C0 366.225 14.7746 381 33 381H78.7945C81.1506 381 82.5938 386.958 80.8479 388.54C74.185 394.578 70 403.3 70 413C70 431.225 84.7746 446 103 446H103.445C105.204 446 106.155 448.157 105.097 449.563C100.108 456.192 97.1519 464.438 97.1519 473.373C97.1519 495.267 114.9 513.015 136.794 513.015H179.866C180.97 513.015 181.866 513.911 181.866 515.015V534.194C181.866 556.087 199.614 573.835 221.508 573.835H277.613C278.717 573.835 279.613 574.731 279.613 575.835V599.358C279.613 621.252 297.361 639 319.254 639H339.171C361.064 639 378.813 621.252 378.813 599.358C378.813 596.203 381.206 593.385 384.361 593.385H426.571C448.464 593.385 466.213 575.637 466.213 553.743C466.213 550.856 465.904 548.041 465.318 545.328C464.407 541.323 462.728 536.672 459.696 532.021C452.339 520.741 438.69 514.647 437.513 514.136C437.452 514.11 437.406 514.087 437.348 514.056C436.72 513.72 432.669 511.579 428.136 509.804C427.235 509.451 426.217 509.826 425.731 510.663C418.064 523.846 413.553 530.264 398.876 541.796C382.688 554.515 366.837 563.518 340.228 561.346C331.707 560.65 315.527 554.471 309.818 544.511C305.278 536.591 305.788 526.007 310.904 518.446C323.395 499.982 346.256 488.296 373.895 484.234C390.083 481.855 406.112 484.028 420.783 488.024C421.872 488.321 423.005 487.675 423.237 486.571C423.694 484.396 423.95 482.272 423.854 479.89C423.402 468.629 420.037 462.117 412.993 454.367C411.592 452.826 410.091 451.41 408.514 450.108C406.957 448.822 407.811 446 409.831 446H410.655C411.081 446 411.498 446.135 411.837 446.393C412.227 446.69 412.612 446.994 412.993 447.308C428.71 460.218 434.563 473.028 432.771 489.48C432.659 490.508 433.312 491.473 434.299 491.782C440.918 493.859 452.316 499.549 453.133 499.959C453.166 499.975 453.189 499.987 453.22 500.006C454.196 500.571 472.554 511.313 482.503 524.962C483.003 525.647 483.485 526.34 483.951 527.039C484.543 527.925 485.717 528.232 486.621 527.668C497.844 520.667 505.311 508.21 505.311 494.009V474.83C505.311 473.726 506.207 472.83 507.311 472.83H513.191C530.097 472.83 544.531 462.248 550.23 447.346C550.536 446.546 551.292 446 552.148 446H581C599.225 446 614 431.225 614 413C614 403.3 609.815 394.578 603.152 388.54C601.406 386.958 602.849 381 605.206 381H651C669.225 381 684 366.225 684 348C684 329.775 669.225 315 651 315H630C648.225 315 663 300.225 663 282C663 263.775 648.225 249 630 249H581C599.225 249 614 234.225 614 216Z" fill="url(#paint1_linear_928_1405)"/>
<defs>
<linearGradient id="paint0_linear_928_1405" x1="914" y1="258.835" x2="-12.9424" y2="258.835" gradientUnits="userSpaceOnUse">
<stop stop-color="#C7E7FA"/>
<stop offset="0.265625" stop-color="#46D1F2"/>
<stop offset="0.541667" stop-color="#13B0EF"/>
<stop offset="0.770833" stop-color="#23ACEF"/>
<stop offset="1" stop-color="#31A7F0"/>
</linearGradient>
<linearGradient id="paint1_linear_928_1405" x1="914" y1="258.835" x2="-12.9424" y2="258.835" gradientUnits="userSpaceOnUse">
<stop stop-color="#C7E7FA"/>
<stop offset="0.265625" stop-color="#46D1F2"/>
<stop offset="0.541667" stop-color="#13B0EF"/>
<stop offset="0.770833" stop-color="#23ACEF"/>
<stop offset="1" stop-color="#31A7F0"/>
</linearGradient>
</defs>
</svg>
