<svg width="1114" height="429" viewBox="0 0 1114 429" fill="none" xmlns="http://www.w3.org/2000/svg">
<path d="M887.776 294.762C876.715 290.841 854.585 287.117 837.208 291.611C805.711 299.757 781.32 326.366 814.943 332.882C840.863 337.906 872.481 316.067 887.776 294.762Z" fill="url(#paint0_linear_927_2787)"/>
<path d="M144.291 52.1316C144.291 23.3402 167.631 0 196.423 0H548.311C563.714 0 577.557 6.67979 587.1 17.3005C593.514 24.4379 601.867 30.4101 611.462 30.4101C622.828 30.4101 632.178 21.8974 639.709 13.3851C646.972 5.17576 657.586 0 669.409 0H942.5C974.256 0 1001.21 25.7436 1001.21 57.5V57.5C1001.21 83.9265 1022.63 105.349 1049.05 105.349H1073.43C1095.32 105.349 1113.07 123.098 1113.07 144.991C1113.07 166.885 1095.32 184.633 1073.43 184.633C1070.93 184.633 1069.49 190.951 1071.42 192.539C1080.27 199.809 1085.92 210.839 1085.92 223.189C1085.92 245.082 1068.17 262.83 1046.28 262.83H994.615C984.924 262.83 978.398 274.317 978.398 284.009C978.398 298.89 970.198 311.856 958.07 318.635C957.293 317.396 956.468 316.166 955.589 314.962C945.367 300.938 926.266 289.982 926.266 289.982C926.266 289.982 911.936 282.771 905.63 281.294C908.062 263.962 902.369 250.688 886.079 237.308C877.256 230.059 866.088 227.326 857.72 226.579C856.459 226.466 856.292 227.963 857.511 228.303C867.147 230.992 878.206 235.704 886.079 244.367C893.123 252.117 896.488 258.629 896.94 269.89C897.065 272.996 896.592 275.665 895.855 278.578C880.65 274.234 863.902 271.747 846.981 274.234C819.343 278.296 796.481 289.982 783.99 308.446C778.875 316.007 778.364 326.591 782.904 334.511C788.613 344.471 804.793 350.65 813.314 351.346C839.923 353.518 855.774 344.515 871.962 331.796C887.167 319.849 891.462 313.39 899.657 299.214C905.193 301.213 910.518 304.101 910.518 304.101C910.518 304.101 925.09 310.227 932.782 322.021C935.815 326.672 937.493 331.323 938.404 335.328C938.99 338.04 939.299 340.856 939.299 343.743C939.299 365.637 921.55 383.385 899.657 383.385H687.447C684.292 383.385 681.899 386.203 681.899 389.358C681.899 411.252 664.15 429 642.257 429H250.184C228.29 429 210.542 411.252 210.542 389.358C210.542 378.389 203.087 363.835 192.117 363.835H152.437C130.543 363.835 112.795 346.087 112.795 324.194C112.795 314.502 106.269 303.015 96.5771 303.015H67.7229C45.8295 303.015 28.0811 285.267 28.0811 263.373C28.0811 248.435 36.3439 235.427 48.5484 228.669C49.4537 228.168 49.9888 227.192 49.9124 226.16C49.8132 224.822 48.7277 223.732 47.386 223.732H40.571C18.6776 223.732 0.929199 205.983 0.929199 184.09C0.929199 162.196 18.6776 144.448 40.571 144.448H45.497C56.4665 144.448 63.9216 129.895 63.9216 118.925C63.9216 97.0318 81.67 79.2835 103.563 79.2835H123.352C135.859 79.2835 144.291 64.6388 144.291 52.1316Z" fill="url(#paint1_linear_927_2787)"/>
<defs>
<linearGradient id="paint0_linear_927_2787" x1="1113.07" y1="173.772" x2="-14.8189" y2="173.772" gradientUnits="userSpaceOnUse">
<stop stop-color="#C7E7FA"/>
<stop offset="0.265625" stop-color="#46D1F2"/>
<stop offset="0.541667" stop-color="#13B0EF"/>
<stop offset="0.770833" stop-color="#23ACEF"/>
<stop offset="1" stop-color="#31A7F0"/>
</linearGradient>
<linearGradient id="paint1_linear_927_2787" x1="1113.07" y1="173.772" x2="-14.8189" y2="173.772" gradientUnits="userSpaceOnUse">
<stop stop-color="#C7E7FA"/>
<stop offset="0.265625" stop-color="#46D1F2"/>
<stop offset="0.541667" stop-color="#13B0EF"/>
<stop offset="0.770833" stop-color="#23ACEF"/>
<stop offset="1" stop-color="#31A7F0"/>
</linearGradient>
</defs>
</svg>
