<svg width="883" height="346" viewBox="0 0 883 346" fill="none" xmlns="http://www.w3.org/2000/svg">
<path d="M21.5341 127.407C21.9487 124.564 26.0509 124.564 26.4655 127.407L28.5684 141.825C28.7274 142.916 29.5839 143.772 30.6745 143.931L45.093 146.034C47.9359 146.449 47.9359 150.551 45.093 150.966L30.6745 153.069C29.5839 153.228 28.7274 154.084 28.5684 155.175L26.4655 169.593C26.0509 172.436 21.9487 172.436 21.5341 169.593L19.4313 155.175C19.2722 154.084 18.4157 153.228 17.3252 153.069L2.90661 150.966C0.0636814 150.551 0.0636814 146.449 2.90661 146.034L17.3252 143.931C18.4157 143.772 19.2722 142.916 19.4313 141.825L21.5341 127.407Z" fill="url(#paint0_radial_927_2742)"/>
<path d="M431.534 280.407C431.949 277.564 436.051 277.564 436.466 280.407L438.568 294.825C438.727 295.916 439.584 296.772 440.674 296.931L455.093 299.034C457.936 299.449 457.936 303.551 455.093 303.966L440.674 306.069C439.584 306.228 438.727 307.084 438.568 308.175L436.466 322.593C436.051 325.436 431.949 325.436 431.534 322.593L429.431 308.175C429.272 307.084 428.416 306.228 427.325 306.069L412.907 303.966C410.064 303.551 410.064 299.449 412.907 299.034L427.325 296.931C428.416 296.772 429.272 295.916 429.431 294.825L431.534 280.407Z" fill="url(#paint1_radial_927_2742)"/>
<path d="M148.027 264.674C148.19 263.552 149.809 263.552 149.973 264.674L150.803 270.365C150.866 270.796 151.204 271.134 151.635 271.197L157.326 272.027C158.448 272.19 158.448 273.81 157.326 273.973L151.635 274.803C151.204 274.866 150.866 275.204 150.803 275.635L149.973 281.326C149.809 282.449 148.19 282.449 148.027 281.326L147.196 275.635C147.134 275.204 146.796 274.866 146.365 274.803L140.674 273.973C139.551 273.81 139.551 272.19 140.674 272.027L146.365 271.197C146.796 271.134 147.134 270.796 147.196 270.365L148.027 264.674Z" fill="url(#paint2_radial_927_2742)"/>
<path d="M218.105 320.566C218.339 318.957 220.66 318.957 220.895 320.566L222.085 328.724C222.175 329.341 222.659 329.825 223.276 329.915L231.434 331.105C233.043 331.34 233.043 333.661 231.434 333.895L223.276 335.085C222.659 335.175 222.175 335.659 222.085 336.276L220.895 344.434C220.66 346.043 218.339 346.043 218.105 344.434L216.915 336.276C216.825 335.659 216.34 335.175 215.723 335.085L207.565 333.895C205.957 333.661 205.957 331.34 207.565 331.105L215.723 329.915C216.34 329.825 216.825 329.341 216.915 328.724L218.105 320.566Z" fill="url(#paint3_radial_927_2742)"/>
<path d="M395.494 3.39622C395.663 2.2366 397.336 2.23661 397.506 3.39622L398.363 9.27747C398.428 9.7223 398.778 10.0717 399.222 10.1365L405.104 10.9943C406.263 11.1634 406.263 12.8367 405.104 13.0058L399.222 13.8635C398.778 13.9284 398.428 14.2778 398.363 14.7226L397.506 20.6038C397.336 21.7635 395.663 21.7635 395.494 20.6038L394.636 14.7226C394.571 14.2778 394.222 13.9284 393.777 13.8635L387.896 13.0058C386.736 12.8367 386.736 11.1634 387.896 10.9943L393.777 10.1365C394.222 10.0717 394.571 9.7223 394.636 9.27747L395.494 3.39622Z" fill="url(#paint4_radial_927_2742)"/>
<path d="M508.637 58.8433C508.866 57.2722 511.133 57.2722 511.362 58.8433L512.525 66.8114C512.612 67.4141 513.086 67.8874 513.688 67.9753L521.657 69.1374C523.228 69.3665 523.228 71.6335 521.657 71.8627L513.688 73.0247C513.086 73.1126 512.612 73.586 512.525 74.1887L511.362 82.1568C511.133 83.7279 508.866 83.7279 508.637 82.1568L507.475 74.1887C507.387 73.586 506.914 73.1126 506.311 73.0247L498.343 71.8627C496.772 71.6335 496.772 69.3665 498.343 69.1374L506.311 67.9753C506.914 67.8874 507.387 67.4141 507.475 66.8114L508.637 58.8433Z" fill="url(#paint5_radial_927_2742)"/>
<path d="M220.91 1.90046C221.177 0.0675212 223.822 0.0675212 224.09 1.90046L225.445 11.1966C225.548 11.8997 226.1 12.452 226.803 12.5545L236.099 13.9103C237.932 14.1776 237.932 16.8225 236.099 17.0898L226.803 18.4455C226.1 18.5481 225.548 19.1003 225.445 19.8034L224.09 29.0996C223.822 30.9325 221.177 30.9325 220.91 29.0996L219.554 19.8034C219.452 19.1003 218.9 18.5481 218.196 18.4455L208.9 17.0898C207.067 16.8225 207.067 14.1776 208.9 13.9103L218.196 12.5545C218.9 12.452 219.452 11.8997 219.554 11.1966L220.91 1.90046Z" fill="url(#paint6_radial_927_2742)"/>
<path d="M865.91 167.9C866.177 166.068 868.822 166.068 869.09 167.9L870.445 177.197C870.548 177.9 871.1 178.452 871.803 178.555L881.099 179.91C882.932 180.178 882.932 182.822 881.099 183.09L871.803 184.446C871.1 184.548 870.548 185.1 870.445 185.803L869.09 195.1C868.822 196.933 866.177 196.933 865.91 195.1L864.554 185.803C864.452 185.1 863.9 184.548 863.196 184.446L853.9 183.09C852.067 182.822 852.067 180.178 853.9 179.91L863.196 178.555C863.9 178.452 864.452 177.9 864.554 177.197L865.91 167.9Z" fill="url(#paint7_radial_927_2742)"/>
<path d="M770.91 100.4C771.177 98.5675 773.822 98.5675 774.09 100.4L775.445 109.697C775.548 110.4 776.1 110.952 776.803 111.055L786.099 112.41C787.932 112.678 787.932 115.322 786.099 115.59L776.803 116.946C776.1 117.048 775.548 117.6 775.445 118.303L774.09 127.6C773.822 129.433 771.177 129.433 770.91 127.6L769.554 118.303C769.452 117.6 768.9 117.048 768.196 116.946L758.9 115.59C757.067 115.322 757.067 112.678 758.9 112.41L768.196 111.055C768.9 110.952 769.452 110.4 769.554 109.697L770.91 100.4Z" fill="url(#paint8_radial_927_2742)"/>
<path d="M553.494 216.396C553.663 215.237 555.336 215.237 555.506 216.396L556.363 222.277C556.428 222.722 556.778 223.072 557.222 223.137L563.104 223.994C564.263 224.163 564.263 225.837 563.104 226.006L557.222 226.864C556.778 226.928 556.428 227.278 556.363 227.723L555.506 233.604C555.336 234.763 553.663 234.763 553.494 233.604L552.636 227.723C552.571 227.278 552.222 226.928 551.777 226.864L545.896 226.006C544.736 225.837 544.736 224.163 545.896 223.994L551.777 223.137C552.222 223.072 552.571 222.722 552.636 222.277L553.494 216.396Z" fill="url(#paint9_radial_927_2742)"/>
<path d="M62.7803 240.79C63.0694 238.808 65.9302 238.808 66.2193 240.79L67.6858 250.845C67.7967 251.606 68.394 252.203 69.1545 252.314L79.2096 253.781C81.1921 254.07 81.1921 256.93 79.2096 257.22L69.1545 258.686C68.394 258.797 67.7967 259.394 67.6858 260.155L66.2193 270.21C65.9302 272.192 63.0694 272.192 62.7803 270.21L61.3139 260.155C61.2029 259.394 60.6056 258.797 59.8451 258.686L49.7901 257.22C47.8075 256.93 47.8075 254.07 49.7901 253.781L59.8451 252.314C60.6056 252.203 61.2029 251.606 61.3139 250.845L62.7803 240.79Z" fill="url(#paint10_radial_927_2742)"/>
<path d="M105.494 147.896C105.663 146.737 107.336 146.737 107.506 147.896L108.363 153.777C108.428 154.222 108.778 154.572 109.222 154.637L115.104 155.494C116.263 155.663 116.263 157.337 115.104 157.506L109.222 158.364C108.778 158.428 108.428 158.778 108.363 159.223L107.506 165.104C107.336 166.263 105.663 166.263 105.494 165.104L104.636 159.223C104.571 158.778 104.222 158.428 103.777 158.364L97.896 157.506C96.7364 157.337 96.7364 155.663 97.896 155.494L103.777 154.637C104.222 154.572 104.571 154.222 104.636 153.777L105.494 147.896Z" fill="url(#paint11_radial_927_2742)"/>
<path d="M821.534 20.4068C821.949 17.5639 826.051 17.5639 826.466 20.4068L828.568 34.8254C828.727 35.9159 829.584 36.7724 830.674 36.9315L845.093 39.0343C847.936 39.4489 847.936 43.5511 845.093 43.9658L830.674 46.0686C829.584 46.2276 828.727 47.0841 828.568 48.1747L826.466 62.5932C826.051 65.4362 821.949 65.4362 821.534 62.5932L819.431 48.1747C819.272 47.0841 818.416 46.2276 817.325 46.0686L802.907 43.9658C800.064 43.5511 800.064 39.4489 802.907 39.0343L817.325 36.9315C818.416 36.7724 819.272 35.9159 819.431 34.8254L821.534 20.4068Z" fill="url(#paint12_radial_927_2742)"/>
<defs>
<radialGradient id="paint0_radial_927_2742" cx="0" cy="0" r="1" gradientUnits="userSpaceOnUse" gradientTransform="translate(316.5 173) rotate(47.7263) scale(379.085 968.486)">
<stop stop-color="white"/>
<stop offset="1" stop-color="white" stop-opacity="0"/>
</radialGradient>
<radialGradient id="paint1_radial_927_2742" cx="0" cy="0" r="1" gradientUnits="userSpaceOnUse" gradientTransform="translate(316.5 173) rotate(47.7263) scale(379.085 968.486)">
<stop stop-color="white"/>
<stop offset="1" stop-color="white" stop-opacity="0"/>
</radialGradient>
<radialGradient id="paint2_radial_927_2742" cx="0" cy="0" r="1" gradientUnits="userSpaceOnUse" gradientTransform="translate(316.5 173) rotate(47.7263) scale(379.085 968.486)">
<stop stop-color="white"/>
<stop offset="1" stop-color="white" stop-opacity="0"/>
</radialGradient>
<radialGradient id="paint3_radial_927_2742" cx="0" cy="0" r="1" gradientUnits="userSpaceOnUse" gradientTransform="translate(316.5 173) rotate(47.7263) scale(379.085 968.486)">
<stop stop-color="white"/>
<stop offset="1" stop-color="white" stop-opacity="0"/>
</radialGradient>
<radialGradient id="paint4_radial_927_2742" cx="0" cy="0" r="1" gradientUnits="userSpaceOnUse" gradientTransform="translate(316.5 173) rotate(47.7263) scale(379.085 968.486)">
<stop stop-color="white"/>
<stop offset="1" stop-color="white" stop-opacity="0"/>
</radialGradient>
<radialGradient id="paint5_radial_927_2742" cx="0" cy="0" r="1" gradientUnits="userSpaceOnUse" gradientTransform="translate(316.5 173) rotate(47.7263) scale(379.085 968.486)">
<stop stop-color="white"/>
<stop offset="1" stop-color="white" stop-opacity="0"/>
</radialGradient>
<radialGradient id="paint6_radial_927_2742" cx="0" cy="0" r="1" gradientUnits="userSpaceOnUse" gradientTransform="translate(316.5 173) rotate(47.7263) scale(379.085 968.486)">
<stop stop-color="white"/>
<stop offset="1" stop-color="white" stop-opacity="0"/>
</radialGradient>
<radialGradient id="paint7_radial_927_2742" cx="0" cy="0" r="1" gradientUnits="userSpaceOnUse" gradientTransform="translate(316.5 173) rotate(47.7263) scale(379.085 968.486)">
<stop stop-color="white"/>
<stop offset="1" stop-color="white" stop-opacity="0"/>
</radialGradient>
<radialGradient id="paint8_radial_927_2742" cx="0" cy="0" r="1" gradientUnits="userSpaceOnUse" gradientTransform="translate(316.5 173) rotate(47.7263) scale(379.085 968.486)">
<stop stop-color="white"/>
<stop offset="1" stop-color="white" stop-opacity="0"/>
</radialGradient>
<radialGradient id="paint9_radial_927_2742" cx="0" cy="0" r="1" gradientUnits="userSpaceOnUse" gradientTransform="translate(316.5 173) rotate(47.7263) scale(379.085 968.486)">
<stop stop-color="white"/>
<stop offset="1" stop-color="white" stop-opacity="0"/>
</radialGradient>
<radialGradient id="paint10_radial_927_2742" cx="0" cy="0" r="1" gradientUnits="userSpaceOnUse" gradientTransform="translate(316.5 173) rotate(47.7263) scale(379.085 968.486)">
<stop stop-color="white"/>
<stop offset="1" stop-color="white" stop-opacity="0"/>
</radialGradient>
<radialGradient id="paint11_radial_927_2742" cx="0" cy="0" r="1" gradientUnits="userSpaceOnUse" gradientTransform="translate(316.5 173) rotate(47.7263) scale(379.085 968.486)">
<stop stop-color="white"/>
<stop offset="1" stop-color="white" stop-opacity="0"/>
</radialGradient>
<radialGradient id="paint12_radial_927_2742" cx="0" cy="0" r="1" gradientUnits="userSpaceOnUse" gradientTransform="translate(316.5 173) rotate(47.7263) scale(379.085 968.486)">
<stop stop-color="white"/>
<stop offset="1" stop-color="white" stop-opacity="0"/>
</radialGradient>
</defs>
</svg>
